<svg xmlns="http://www.w3.org/2000/svg" xmlns:xlink="http://www.w3.org/1999/xlink" fill-rule="nonzero" viewBox="0 64 256 128" width="300"><g fill="none" fill-rule="nonzero" stroke="none" stroke-width="1" stroke-linecap="butt" stroke-linejoin="miter" stroke-miterlimit="10" stroke-dasharray="" stroke-dashoffset="0" font-family="none" font-weight="none" font-size="none" text-anchor="none" style="mix-blend-mode: normal"><g transform="scale(5.33333,5.33333)"><path d="M47,19h-3.7v0c-0.1,-0.1 -0.1,-0.1 -0.2,-0.2c0.9,-0.7 1.5,-1.8 1.5,-3c0,-2.1 -1.7,-3.8 -3.8,-3.8h-6h-1v1v9v0.6l-0.3,-0.9l-3,-9l-0.3,-0.7h-0.7h-4.2h-0.7l-0.2,0.7l-0.8,2.5v-0.2v-2v-1h-1h-13.5c-1.9,0 -3.3,1.5 -3.3,3.4c0,0.9 0.3,1.3 0.5,1.6v0v0c0.2,0.2 1,1.2 1.5,1.9h-6.8h-1v1v2v1h1h8.8c1.9,0 3.4,-1.5 3.4,-3.4c0,-0.9 -0.3,-1.3 -0.5,-1.6l-1.5,-2h3.5v6v1h1h2.6h1v-1v-6h3.3h0.7l-1.8,5.7l-0.5,1.4h1.4h2.5h0.7l0.2,-0.7l0.5,-1.3h2.4l0.5,1.3l0.2,0.7h0.6h2.5h1.2v0h1h2.7h1v-1v-1.1c0.6,0.6 1.2,1.1 1.6,1.5c0.2,0.1 0.6,0.6 1.4,0.6h5.6h1v-1v-2v-1zM15.5,26.3l-3,9l-0.2,0.7h-0.7h-1.7h-0.7l-0.2,-0.7l-1,-2.7l-0.9,2.7l-0.3,0.7h-0.7h-1.7h-0.8l-0.2,-0.7l-3,-9l-0.4,-1.3h1.4h2.6h0.7l0.2,0.7l0.3,1.1l0.4,-1.1l0.3,-0.7h0.7h2.8h0.7l0.2,0.7l0.4,1.1l0.3,-1.1l0.2,-0.7h0.8h2.6h1.4zM41.3,25c-1.9,0 -3.4,1.5 -3.4,3.4c0,0.9 0.3,1.3 0.5,1.6v0v0c0.2,0.2 1,1.2 1.6,1.9h-4.5c0,0 0,0 -0.1,0l-0.1,-0.1c0.9,-0.7 1.5,-1.8 1.5,-3c0,-2.1 -1.7,-3.8 -3.8,-3.8h-3.4h-2.6h-1v1v9v1l-0.4,-1.3l-3,-9l-0.2,-0.7h-0.7h-4.2h-0.7l-0.2,0.7l-2.9,9l-0.5,1.3h1.4h2.4h0.7l0.2,-0.7l0.5,-1.3h2.4l0.5,1.3l0.2,0.7h0.7h2.5h1.3v0h1h2.7h1v-1v-1.1c0.6,0.6 1.2,1.1 1.7,1.5c0.4,0.4 0.9,0.6 1.5,0.6h8.3c1.9,0 3.4,-1.5 3.4,-3.4c0,-0.9 -0.3,-1.3 -0.5,-1.6l-1.5,-2h3.4h1v-1v-2v-1h-1z" fill="#ffc107"/><path d="M22.5,13c0,0 -12.6,0 -13.5,0c-1.3,0 -2.3,1 -2.3,2.4c0,0.6 0.2,0.8 0.3,1c0.3,0.4 2.1,2.6 2.1,2.6c0,0.1 0.1,0.2 0.1,0.3c0.1,0.4 -0.2,0.7 -0.6,0.7h-7.6v2c0,0 8.1,0 8.8,0c1.3,0 2.4,-1 2.4,-2.4c0,-0.6 -0.2,-0.8 -0.3,-1l-1.9,-2.6c0,-0.1 -0.1,-0.2 -0.1,-0.3c0,-0.4 0.3,-0.7 0.7,-0.7h5.2v7h2.6v-7h4.3v-2zM29.5,13h-4.2l-2.9,9h2.5l0.7,-2h3.8l0.7,2h2.5zM26.2,18l1.2,-3.6l1.2,3.6zM43.3,20c-0.4,0 -0.6,-0.2 -0.8,-0.4c-0.5,-0.6 -1.1,-1.1 -1.1,-1.1c1.2,-0.3 2.1,-1.4 2.1,-2.7c0,-1.6 -1.3,-2.8 -2.8,-2.8h-6v9h2.7v-3.4c0,0 2.3,2.2 3.3,3.1c0.1,0.1 0.4,0.3 0.8,0.3c0.3,0 5.5,0 5.5,0v-2zM37.4,15h2.6c0.6,0 1.1,0.4 1.1,1c0,0.6 -0.5,1 -1.1,1h-2.6zM12,26l-1.3,3.9l-1.3,-3.9h-2.8l-1.4,3.9l-1.3,-3.9h-2.5l3,9h1.7l1.9,-5.5l1.9,5.5h1.7l3,-9zM42.7,28h4.3v-2c0,0 -4.8,0 -5.7,0c-1.3,0 -2.4,1 -2.4,2.4c0,0.6 0.2,0.8 0.3,1c0.3,0.3 2.2,2.5 2.2,2.5c0,0.1 0.1,0.2 0.1,0.3c0,0.4 -0.3,0.7 -0.6,0.7c0,0 -5.2,0 -5.3,0c-0.4,0 -0.6,-0.2 -0.8,-0.4c-0.5,-0.6 -1,-1.1 -1,-1.1c1.2,-0.3 2.1,-1.4 2.1,-2.7c0,-1.6 -1.3,-2.8 -2.8,-2.8h-3.4h-2.7v9h2.7v-3.4c0,0 2.3,2.2 3.3,3.1c0.1,0.1 0.4,0.3 0.8,0.3c0.3,0 7.8,0 8.3,0c1.3,0 2.4,-0.9 2.4,-2.4c0,-0.6 -0.2,-0.8 -0.3,-1l-2,-2.5c0,-0.1 -0.1,-0.2 -0.1,-0.3c0,-0.4 0.3,-0.7 0.6,-0.7zM32.3,30h-2.6v-2h2.6c0.6,0 1.1,0.4 1.1,1c0,0.6 -0.5,1 -1.1,1zM21.7,26h-4.2l-2.9,9h2.4l0.7,-2h3.8l0.7,2h2.5zM18.4,31l1.2,-3.6l1.2,3.6z" fill="#303236"/></g></g></svg>
