<?xml version="1.0" encoding="utf-8"?>
<!-- Uploaded to: SVG Repo, www.svgrepo.com, Generator: SVG Repo Mixer Tools -->
<svg width="800px" height="800px" viewBox="0 0 64 64" xmlns="http://www.w3.org/2000/svg">
<path d="m10.35 35.62s-.75.14-1-1.48-.58-8.61-.3-8.87a10 10 0 0 1 2.07-.63s0-7.54 2.67-11.86 5.4-6.09 10.65-7.56a29.38 29.38 0 0 1 15.18.3c4.41 1.18 8.7 4.62 9.89 8.8a49.27 49.27 0 0 1 1.49 9.55 9.53 9.53 0 0 1 2.52.9c.17.33.43 9.12 0 9.38a1.6 1.6 0 0 1 -.87.23s7.86 18 7.59 19-12.93 6.36-30.1 6.23-26.05-5.41-26.36-6.11 6.57-17.88 6.57-17.88z" fill="#1d1d1b"/>
<path d="m13.24 27.92s-.6-7.65 1.3-11.91a19.6 19.6 0 0 1 7.75-8.23 20.47 20.47 0 0 1 6.51-1.45c.05.16.67 10.23.66 11.61a27 27 0 0 1 -.57 4s-4-2.44-8.16-1.38a10.47 10.47 0 0 0 -7.49 7.36z" fill="#6a6a6a"/>
<path d="m30.11 22.18s.53-3.69.54-4.89-.8-10.82-.6-10.95a4.11 4.11 0 0 1 1.88 0c.07.16 1.07 11.66 1.28 13.22a9.33 9.33 0 0 1 .27 2.44 2.85 2.85 0 0 1 -3.37.18z" fill="#6a6a6a"/>
<path d="m34.8 21.44a76.48 76.48 0 0 1 -1.4-9.35c-.17-3.62-.51-5.65-.06-5.83s6.66.17 10.42 3.45 4.06 5.61 3.81 5.66-2.52-1-2.64-.77-.15.8.06.92 2.69 1.1 2.82 1.26a4.18 4.18 0 0 1 .28.95 16.94 16.94 0 0 0 -3-1.13c-.12.17-.23.92 0 1s3 1.3 3 1.3l.11.79s-2.83-1.18-3-1.14-.36.8-.15.92 3.16 1.26 3.25 1.43.41 1.36.41 1.36l-1.71-.54s.31.87.48 1 1.3.42 1.31.76a31.35 31.35 0 0 1 .2 3.33c-.12 0-2.2-6.45-5.21-7.09s-8.98 1.72-8.98 1.72z" fill="#6a6a6a"/>
<path d="m22.44 22.28c2.21 0 7.19 2.45 9.76 1.84s6.89-2.79 9.51-2.81 4.07 2.48 6.36 7.84 7.14 17.34 7 17.34-8.1-17.89-9.66-20.23-2.66-3-5.86-2.77-6.81 1-6.85 1.41 0 7.17.49 7.75 3.06.71 6.18.51 5-.33 5.77-.64a10.14 10.14 0 0 0 1.69-1l7.79 16.48a30.15 30.15 0 0 0 -2.94-2.56c-.21.05-.31.8-.19.88s3.67 3.33 4 3.7a12.43 12.43 0 0 1 1.61 2.63c-.12.17-.45.55-.66.47s-5-5.71-5.39-5.83-.45.6-.45.6 5.18 5.5 5.06 5.63a8.62 8.62 0 0 1 -1.15.57s-4.34-5-4.5-4.94-.69.6-.4.81a45.71 45.71 0 0 1 4.07 4.36 7 7 0 0 1 -1.2.4 46.49 46.49 0 0 0 -3.58-3.72c-.25 0-.61.39-.49.55s3.34 3.29 3.22 3.46a4 4 0 0 1 -1.16.37s-2.47-2.59-2.65-2.59-.74.31-.53.6 2.39 2.19 2.27 2.28a4.86 4.86 0 0 1 -1 .19c-.13 0-2-2-2.22-2s-.78.19-.65.48 1.83 1.79 1.63 1.92-5.17 1.66-15.76 1.51-14.84-1.85-14.84-1.85a46 46 0 0 0 -4.22-3.69c-.37 0-.78.6-.61.72a29.31 29.31 0 0 1 2.86 2.6c-.16 0-3.27-.92-4.32-1.1a7.6 7.6 0 0 1 -2.26-.61c0-.13 6-14.45 6.27-14.41s4.29 10.07 4.29 10.07a2.77 2.77 0 0 0 1.2 2.89 3.9 3.9 0 0 0 3.49-.25l15.51.08c.12 0 2.65 1.27 3.69-.68s.44-2.67.44-2.67 4-11.27 3.76-11.52a5.63 5.63 0 0 0 -1.76-.35s-2.75 10.32-3 10.33-1.26-.3-1.68-.34a3.18 3.18 0 0 0 -.7 0l-5.48-7.62s1.1-6-3.28-6-3.14 6-3.14 6-1-.06-2 1.51-3.39 6.29-3.39 6.29a3.77 3.77 0 0 0 -1.45.2c-.66.27-1.07.49-1.07.49s-3.54-8.29-3.46-8.46.82-2.15 1.2-2.16 2.93.39 3.93.41 1.16-.11 1.2-.28.27-.8.1-.8-5.11-.57-5.48-.57-1.07 2.14-1.36 2.23-1.32.25-1.2 0 2.16-5.13 2.29-5.1 7.53 1.07 9.73.64 2.76-1.11 3.07-2.16a31.45 31.45 0 0 0 .25-6.59 19.1 19.1 0 0 0 -6.2-1.31c-2.79-.09-4.67-.13-5.87 1.82s-10.79 27.71-10.96 27.76a3.64 3.64 0 0 1 -.92-.29s4.91-14 6.78-19.26 3.47-11.56 9.47-11.46z" fill="#6a6a6a"/>
<path d="m28.76 40.3a14.69 14.69 0 0 0 2.25 0l2.29-.09s-.39 9.67 0 9.75.67.27.66-.06-.19-7.75.06-7.79.75 1.52.75 1.52-.14 6.42 0 6.46.88.27.84.06 0-4.75 0-4.75l1.43 2.26-.79.06s-.08 2 .17 2a4.75 4.75 0 0 0 .71 0c.12 0 .11 1.16.11 1.16s-7.26-.19-9.8-.13-2.74.11-2.74.11a6.75 6.75 0 0 0 -.55-2l-.62-1.28s4.86-7.15 5.23-7.28z" fill="#6a6a6a"/>
<g fill="#1d1d1b">
<path d="m30.57 41.13c.28-.1.79-.06.84.1s.41 8.41.17 8.63-.88.14-.88 0-.25-8.69-.13-8.73z"/>
<path d="m28.74 41.26c.21-.09.7-.19.79 0s.55 8.61.38 8.66-.87.18-.87 0-.3-8.66-.3-8.66z"/>
<path d="m27 44.8c.06-.14.87-.4.87-.23a52.12 52.12 0 0 1 .21 5.25 3 3 0 0 1 -.79.06s-.38-4.88-.29-5.08z"/>
<path d="m25.25 46.8c0-.17.57-.64.65-.51a14 14 0 0 1 .26 3.45 4 4 0 0 1 -.79.14s-.16-2.88-.12-3.08z"/>
<path d="m41.23 35.62c.19-.1 2.79-.16 4.58-.37a11 11 0 0 1 1.78-.25c.21 0 .48.87.36 1a17.41 17.41 0 0 1 -4.32.69c-1.46 0-2.29 0-2.29 0s-.48-.9-.11-1.07z"/>
<path d="m42 38.39c.34-.09 1.41 1.51 1.41 1.51s-.19.79-.4.63a9.86 9.86 0 0 1 -1.5-1.63c-.08-.21.29-.46.49-.51z"/>
<path d="m40.41 39.68c.29-.1 2.3 1.78 2.22 2s-.15.63-.28.59a19.84 19.84 0 0 1 -2.43-2.11c-.04-.22.37-.44.49-.48z"/>
<path d="m39.41 41.16s2.55 2 2.47 2.32a2.36 2.36 0 0 1 -.36.67s-2.93-2.38-2.81-2.6.53-.26.7-.39z"/>
<path d="m14.45 48.4c.2.07 2.81 2.31 2.82 2.72s-.11.63-.24.63a27 27 0 0 1 -2.93-2.38c-.05-.17.14-1.05.35-.97z"/>
<path d="m13.67 50.5s3.83 3.16 3.83 3.37-.11.67-.23.67a35.1 35.1 0 0 1 -4.08-3.07c-.04-.25.48-.97.48-.97z"/>
<path d="m16.27 17c-.17-.24.44-2.3 1.57-3.91s2.19-2.52 2.65-2.4.77.61.6.82a7.05 7.05 0 0 0 -2.72 2.86c-.79 1.85-.55 3-.8 3.06a1.86 1.86 0 0 1 -1.3-.43z"/>
<path d="m44.85 13.23a2.79 2.79 0 0 1 1.6.54c.09.25.27.83-.11.76a10.8 10.8 0 0 1 -1.43-.53c-.17-.06-.31-.72-.06-.77z"/>
</g>
</svg>