<?xml version="1.0" encoding="utf-8"?>
<!-- Uploaded to: SVG Repo, www.svgrepo.com, Generator: SVG Repo Mixer Tools -->
<svg width="800px" height="800px" viewBox="0 0 64 64" xmlns="http://www.w3.org/2000/svg">
<path d="m7.17 52.38a37.25 37.25 0 0 1 1.62-10.83c1.71-5.55 4.55-16.38 6.21-22.17s4.5-12.75 9.79-14.83a20.06 20.06 0 0 1 15.84.87c4.21 2.21 6.21 4.58 8.46 13.58s3.29 19.17 5.41 25.75 2.5 7.13 2.25 7.54a4.86 4.86 0 0 1 -2.62 1.55 16.15 16.15 0 0 1 -3.71-.88l-1.29-.83s2.12 3.54 2.08 4-.37 1-.75 1a13.29 13.29 0 0 1 -4.46-2.13 13.67 13.67 0 0 1 -1.7-1.66s-1.05 4.7-1.09 5.37a2.5 2.5 0 0 1 -.46 1.42 7.21 7.21 0 0 1 -2.45-1c-.38-.42-2.5-2.21-2.5-2.21a17.5 17.5 0 0 1 -2.8 3.29c-1 .59-1.33.46-1.33.46s-1.92-2.83-2.29-3.33a6.6 6.6 0 0 0 -.88-.92s-2.75 3.25-3.5 3.5-1.66.25-1.87-.17-1-2.33-1-2.33a14.74 14.74 0 0 1 -2.88 1.79c-1 .34-1.12.29-1.29.13s-.29-5.34-.29-5.34a23.12 23.12 0 0 1 -5.67 3.17c-2.33.67-3.41.71-3.66.38s.25-6.25.25-6.25a21.64 21.64 0 0 1 -2.17 1.29 1.71 1.71 0 0 1 -1.25-.21z" fill="#1d1d1b"/>
<path d="m8.79 50.25a102 102 0 0 1 2.42-10.66c1.38-4.46 4.25-13.29 4.63-13.88a3.11 3.11 0 0 1 3.16-1.33c1.79.21 2.75.54 3 .33s.46-.41.33-.46-2-2.16-1.54-2.25a3.37 3.37 0 0 1 1.79.25c.8.3 1.17.71 1.38.55a1.05 1.05 0 0 0 .29-.5 11.3 11.3 0 0 0 -1.58-2.42c-.67-.58-1-.79-1-.79a17.29 17.29 0 0 1 3.17 1.16c.75.5 1.16.55 1.25.34s.62-2.54.62-2.54a6.62 6.62 0 0 0 1.08 2.12 1.32 1.32 0 0 0 1.21.46l1.17-.21.67-.62s.2.66.58.75.83-.5 1.08-1.3a5.89 5.89 0 0 0 .13-1.95 6 6 0 0 1 1.08 1.79c.42 1.08.29 1.75.63 1.87s.75-.66 2.33-1.87a25.55 25.55 0 0 1 4-2.63c.17 0-1.25 3-1.21 3.63s.17 1 .54 1a10.24 10.24 0 0 0 1.88-.67s-.17 1.29.37 1.58 1.59 0 2.67.46 3.13 2.46 3.88 6.17 2.99 13.67 2.99 13.67-1.54-1.38-1.7-1.09-.5.59-.34.79 2.21 1.67 2.34 1.88.62 1.79.62 1.79-2.42-2.5-2.54-2.29-.33.87-.17 1 2.92 2.5 3 2.75.38 1 .38 1-3.25-2.92-3.38-2.67a2.25 2.25 0 0 0 -.08 1c.08.13 3.71 2.92 3.83 3.13a4.84 4.84 0 0 1 .3.75 31.17 31.17 0 0 0 -3.55-2.13 6 6 0 0 0 -.12 1s3.79 2 3.92 2.21.37.79.16.84a6 6 0 0 1 -4-1.5c-1.79-1.55-2.29-2.5-2.58-2.5s-1.38.29-1.33.58a31.09 31.09 0 0 0 .7 3.12c.38 1.3.63 2 .63 2a12.15 12.15 0 0 1 -2.38-2.55c-.7-1.2-.75-1.58-1-1.62s-1.41.75-1.41.75-.42 2-.88 4.33-.5 2.54-.5 2.54a41.85 41.85 0 0 0 -3.87-2.58 1.21 1.21 0 0 0 -1 .42c-.17.21-2.13 2.87-2.13 2.87a38.51 38.51 0 0 1 -2.62-3.12c-.38-.67-.84-1-1-1s-3.34 3.41-3.71 3.66-1.08-.12-1.21-.37a20.16 20.16 0 0 0 -1.17-2.29c-.12 0-1.87 1.5-2.71 1.92a7 7 0 0 1 -1 .46 39 39 0 0 0 0-4.92.62.62 0 0 0 -.79-.33 25.14 25.14 0 0 1 -4.92 2.71 15.75 15.75 0 0 1 -3.5.87s.55-7 .3-7.17a1.78 1.78 0 0 0 -1.38 0z" fill="#f2910d"/>
<g fill="#1d1d1b">
<path d="m14.42 33s2.54-6.54 3.21-7a5.49 5.49 0 0 1 3.16-.29c.21.25-.12.67-.12.67a3.08 3.08 0 0 0 -2.54 1.08c-1.04 1.25-3.71 5.54-3.71 5.54z"/>
<path d="m42.17 24.55c.29 0 2.75-.09 3.42.5s2.91 5.95 2.62 6.2-.54.46-.67.09-2.75-5.5-3-5.54a16.19 16.19 0 0 1 -2.66-.55c-.17-.16.04-.7.29-.7z"/>
<path d="m29.46 22.84c-.07-.11.46-.29.71-.09s1.08 1.55.92 1.71-.55.29-.67.17-.88-1.63-.96-1.79z"/>
<path d="m34.13 23.59a44.44 44.44 0 0 1 3.5-3.5c.16 0 .37 0 .21.25s-2.84 3.58-3.09 3.54a2.1 2.1 0 0 1 -.62-.29z"/>
<path d="m14 40.05a33.47 33.47 0 0 1 3.42-8.84 10.77 10.77 0 0 1 9-5.37c4.25-.25 5.79 2.71 5.5 4.37s-2.08 5.63-1.58 6a14.18 14.18 0 0 0 4.08.25c.25-.08.46-.71.37-1s-2.41-4.08-1.29-6.62 5.59-4.25 8.79-2 6.25 11.79 6.05 12.75-.75 1.33-1.13 1.29-2.33-6.75-3.37-8.83a13.7 13.7 0 0 0 -2.38-3.38 2.67 2.67 0 0 1 -2.29 2.59 3.66 3.66 0 0 1 -3.46-1.17 4 4 0 0 0 .29 3.12c.79 2 1.63 3.34.88 4.25s-7.25.79-8.13.63-1.17-1.67-.54-3.13 1.67-3.41 1.75-3.75a8.64 8.64 0 0 0 0-1.46s-1.71 2.63-4.46 1.8-2.25-2.88-2.25-2.88a11.78 11.78 0 0 0 -4.42 3.38c-1.66 2.25-2.87 7.75-3.25 8a2.2 2.2 0 0 1 -1.58 0z"/>
<path d="m41.93 31.42c-.23-.19-.87.25-.79.5s1.67 2.17 2 3.46.33 1.71.58 1.79.63.08.67 0a11 11 0 0 0 -.62-3.17 8.16 8.16 0 0 0 -1.84-2.58z"/>
<path d="m40.39 32.75c-.08-.14-1 .09-.87.42a12.54 12.54 0 0 1 .91 2.21c0 .62-.21.83.13 1a2.78 2.78 0 0 0 .79.12 7.71 7.71 0 0 0 -.96-3.75z"/>
<path d="m38.47 33.5c-.13-.16-.66 0-.54.25s0 1.17.42 1.38.54.25.58.12a5.24 5.24 0 0 0 -.46-1.75z"/>
<path d="m22.42 41.46s1-1.62 1.75-1.66 3.42 1.08 8.21.91 8.08-1.08 8.46-.91 1.25 1.33 1.12 1.5-3.5 2-3.5 2-.62 1.87-1.33 2-2-1.67-2-1.67-2.71.09-4 0-1.88 0-1.88 0-.91 2-1.87 1.88-1.63-2.5-1.63-2.5-2.96-.46-3.33-1.55z"/>
</g>
<path d="m26.42 41.09s1.67.58 6.17.46a43.61 43.61 0 0 0 5.75-.38s-.88 3-1.25 3-1.09-1.54-1.42-1.62-1.17.2-3.17.2-3.46-.16-3.62-.12-1.29 1.62-1.46 1.58a6.6 6.6 0 0 1 -1-3.12z" fill="#e6e4da"/>
<path d="m17.84 41.05c.24-.1.41.37.41.37s-2 5.54-2.29 5.5-.62 0-.62-.29 1.95-5.38 2.5-5.58z" fill="#1d1d1b"/>
<path d="m19.46 45.17a2.26 2.26 0 0 1 .58.33c.09.13-1.41 5.5-1.66 5.5a1.75 1.75 0 0 1 -.59-.16s1.59-5.54 1.67-5.67z" fill="#1d1d1b"/>
<path d="m24 46.71c.08-.15.8 0 .75.17s-.5 4.71-.75 4.79-.7.08-.7-.21.62-4.46.7-4.75z" fill="#1d1d1b"/>
<path d="m29.84 47 1 .09-1 5.75s-.55.12-.63-.21.63-5.63.63-5.63z" fill="#1d1d1b"/>
<path d="m33.5 48.8c-.07-.11 1-.21 1-.09s.83 4.75.63 4.92-.46.33-.63.21-.91-4.92-1-5.04z" fill="#1d1d1b"/>
<path d="m37.25 48.42c.06-.16.71-.25.71-.25a47.55 47.55 0 0 1 1.67 5.29c-.17.21-.71.13-.71.13s-1.71-5.04-1.67-5.17z" fill="#1d1d1b"/>
<path d="m41.59 45.21c-.12-.09.54-.58.7-.46s3.09 3.71 2.8 4-.46.34-.63.17-2.67-3.54-2.87-3.71z" fill="#1d1d1b"/>
<path d="m45.54 43.3c-.1-.08.63-.5.75-.34s1.67 2.5 1.5 2.71-.29.42-.54.17-1.54-2.42-1.71-2.54z" fill="#1d1d1b"/>
<path d="m15.88 24.05a5.93 5.93 0 0 1 2.66-.67 8.42 8.42 0 0 1 2.05.25s-2.34-2-1.84-2.5 2.17-.17 2.79-.08a1.51 1.51 0 0 1 .84.29 27.55 27.55 0 0 0 -2.29-2.67c-.42-.25-.8-1-.42-1.12a10.23 10.23 0 0 1 3.67 1 14.28 14.28 0 0 1 2.08 1s.5-2.46.54-3 .21-.67.54-.67.46.08.54.29 1 2.92 1.63 3.29.75.5.87.34.55-1.92.92-1.84.38 0 .46.21.17 1 .42.88a1.38 1.38 0 0 0 .5-1.09 7.5 7.5 0 0 1 -.63-1.87c.08-.29.17-1 .42-.92a4.53 4.53 0 0 1 2.25 2 15.12 15.12 0 0 1 1 2 8.62 8.62 0 0 1 3.62-2.79c2.5-1.08 3.75-1.21 4.08-.92a.42.42 0 0 1 0 .63s-1.33 1.83-1.58 2.37a4.78 4.78 0 0 0 -.33.92s2.46-.79 2.54-.38-.54 2-.29 2a7.79 7.79 0 0 1 2.54.17c1.17.38 2.92 3.29 2.92 3.29l-2.13-7.83s-1.41 2-1.75 2-.66-.42-.66-.42l1.83-2.62s-1.21-3.75-1.38-3.92-1.58 2.54-1.75 2.5-.87-.21-.83-.46 2.08-2.91 2-3a5.82 5.82 0 0 0 -1.21-1.37c-.41-.25-1-.54-1-.54s-2.58 5.79-2.83 6.2-.5.55-.46.3a34 34 0 0 1 1.42-5 20 20 0 0 1 1-2.17s-1.54-1.08-2.25-1.46a3.58 3.58 0 0 0 -1-.41s-1.29 7.74-1.5 7.74-.5 0-.54-.16.91-7.79.79-7.84a8.89 8.89 0 0 0 -4.92-.66 14.75 14.75 0 0 0 -3.62.71 29.2 29.2 0 0 1 1.41 4.79 11.55 11.55 0 0 1 .33 3.66c-.12.05-.7.25-.79.05s-.41-2.75-1-5.21-1.37-3-1.37-3a16.18 16.18 0 0 0 -2.92 1.66 3.14 3.14 0 0 0 -1 1.21 6.66 6.66 0 0 1 1.88 2.54 8.48 8.48 0 0 1 .67 2.92s-.42.17-.55 0a19 19 0 0 0 -1.25-3.21 3.6 3.6 0 0 0 -1.58-1.12l-1.42 2.54a3.69 3.69 0 0 1 2.21 1.5 16 16 0 0 1 1.08 1.79s-.45.5-.58.33-.83-1.83-1.75-2.29a2.79 2.79 0 0 0 -1.62-.33 70.52 70.52 0 0 0 -3.46 10.17z" fill="#f2910d"/>
<path d="m31.54 9.71c.25-.12.8-.25.92 0s.38 4 .13 4a1.18 1.18 0 0 1 -.63 0" fill="#1d1d1b"/>
<path d="m21.71 31.42c.23-.19.88.25.79.5s-1.66 2.17-2 3.46-.33 1.71-.58 1.79-.62.08-.67 0a10.8 10.8 0 0 1 .63-3.17 8.18 8.18 0 0 1 1.83-2.58z" fill="#1d1d1b"/>
<path d="m23.25 32.75c.08-.14 1 .09.88.42a11.78 11.78 0 0 0 -.92 2.21c0 .62.21.83-.12 1a2.87 2.87 0 0 1 -.8.12 7.71 7.71 0 0 1 .96-3.75z" fill="#1d1d1b"/>
<path d="m25.17 33.5c.14-.16.67 0 .54.25s0 1.17-.42 1.38-.54.25-.58.12a5.24 5.24 0 0 1 .46-1.75z" fill="#1d1d1b"/>
</svg>