<?xml version="1.0" encoding="utf-8"?><!-- Uploaded to: SVG Repo, www.svgrepo.com, Generator: SVG Repo Mixer Tools -->
<svg width="800px" height="800px" viewBox="0 0 64 64" xmlns="http://www.w3.org/2000/svg"><path d="m46.18 15.1c.5 0-.07-.68-.25-1.06s-9.5.13-9.5.13a4.16 4.16 0 0 0 -.13 1.31c.13.19 9.38-.38 9.88-.38zm-9.63 5.69c.31.06.19-1 .13-1.25s-1.63-.06-1.94-.06l-.63 1.12s2.13.13 2.44.19zm-3.62 5.75s-.19 1 0 1.13 19.18-.19 19.5-.25 0-.5-.38-.82-18.87 0-19.12-.06zm-3.19 3.88s-.44 1-.13 1.12a74.33 74.33 0 0 0 8.19-.37c.5-.19-.06-.5-.25-.82s-7.55.07-7.81.07zm-5-19.88c.44 0 .56-.31 1.31-.81s2.95-.73 3.19-.81.12-.63-.13-.94-1.06-.13-2.93.44a5 5 0 0 0 -2.5 1.37s.62.75 1.06.75zm9.37 4.06c.38-.25 0-6.56-.12-6.87s-1.76-.19-1.94-.13-.37 6.38-.44 6.88 2.13.37 2.5.12zm-6.56-2c.5-.12.19-.68.19-.93s-4.44-.07-4.69-.13c0 0-.37 1-.19 1.13a29.86 29.86 0 0 0 4.69-.07zm3.88 7.4c-1.25-4.63-5.17-6.38-9.44-5.5-10.94 2.23-7.69 15.5.56 15.35s10.13-5.25 8.88-9.85zm-12.43 6.6c-1.63-2-3.94-8.43 3.19-10.25 2.81-.73 7.81-.35 7.55 6.5s-9.13 5.75-10.74 3.75zm3.81-8.18c-4.06 1-4.37 5.25-1.5 6.93s6.31-.12 6.38-2.68-1.38-5.12-4.89-4.25zm-.75 6a2.62 2.62 0 0 1 1-4.82 2.69 2.69 0 1 1 -1 4.82zm1.38-3.32a1.19 1.19 0 0 0 -.63 2.07 1.39 1.39 0 0 0 1.88-.63c.24-.75-.09-1.6-1.26-1.44zm-13.2 1.9a13.48 13.48 0 0 0 -1.75 8.1c.06.38 1.69.13 1.87-.06s0-.81.25-3.06a11 11 0 0 1 1.32-3.98c.07-.21-1.38-1.43-1.69-1zm48.42 8.42c-.09-.42-6.09-1.09-6.09-1.09s5.09-.16 5.75-.25.25-.58-.08-1.83a43.32 43.32 0 0 0 -2.5-5.17 1.81 1.81 0 0 0 1.42-.5c.5-.58-.92-2.41-1.59-3.58s-2.66-1.5-2.66-1.5a6 6 0 0 0 1.5-.25c.25-.17.5-.25.41-1.25s-3.82-4.29-4.75-4.71-4.75-.08-5-.17.59-.41.84-.58.66-.83.41-1.25-6.83-5-14.58-4.92c-12.74.17-20.08 7.92-24.58 16.09s-2.09 14.66-2.09 14.66a11.57 11.57 0 0 0 .42 1.88c.25.66 4.33 12.83 12.33 18.5s19.17 4 19.5 3.75-.08-5-.08-5 10.92-.67 11.25-1.09a8 8 0 0 0 .25-3.5c-.17-.66-12.17.25-12.42.25s.09-1.16.17-1.58 15.08-.33 15.58-.58.34-2.67.09-3.34-15.67.59-16.09.5-.08-.75-.08-.75l13.17-1.16a16.11 16.11 0 0 0 -.25-3.33c-.25-.25-9.09-.09-9.5-.09s-.75-.75-.75-1 2.33-.25 7-.25 12.41.42 12.41.42a11.06 11.06 0 0 0 1.5-2.75 31.17 31.17 0 0 0 -.91-4.54zm-48.8-11.57c3.57-5.25 9.19-13 22.14-14.12 5.24-.46 9.37 2.44 10.25 2.81s1.87.81 1.56 1.13-6 1.31-6.06 1.62-.19 1.63 0 1.69 10.5-.69 11.44-.25 4 2.94 3.62 3.12-13.75.19-13.94.5-.56 2.32 0 2.57 14.19.06 14.63.37 1.31 2.31 1.06 2.5-15.87-.06-16.25.38-.06 2.37.31 2.43 16.07.13 16.38.5 1.62 3.25 1.25 3.38-15.44.62-15.56 1 .06 1.75.31 1.87 14.56.69 14.87 1.19 1.19.63.13.69-17.31.69-32.94.37-16.26-.31-16.26-.31-.5-8.19 3.06-13.44zm47 16.82c-.43.12-19.93.25-20.06.68s-.06 3.19.25 3.32 10.13.43 10.13.43.18.63-.07.75-13.5 1-13.5 1.38-.06 2.56.32 2.87 15.75-.75 15.87-.43.31.75.06.75-15.62.87-15.75 1.18-.06 3.25.32 3.44 12.31-.37 12.37-.04.31.81 0 .87-12.19 1.13-12.19 1.36.69 4 .44 4.12-10.69 1.25-16.69-4.18-9.31-11.63-9.75-13.44-1.37-4.31-.75-4.44 14.32.25 24.57.19 25.06-.56 25.06-.38-.19 1.44-.63 1.57zm-37.06 2.43s1.25 2.25 1.94 2.57 7.12.18 7.37.12.19-1.62.07-2.12-6.5.06-7.13-.19-.56-1.69-.94-2.13-9.12.69-9.56.88.19 1.37.69 2.94 3.62 5.37 3.81 5.56h1.63l-1.19-1.81c-1.19-1.82-2.56-5.13-2.75-5.25s.87-.25 1.87-.38 4.19-.19 4.19-.19zm-.56 4a20.85 20.85 0 0 0 1.76 3.75c.5.44.62-.06.87-.31s-1.25-3.19-1.5-3.5-.94-.04-1.13.06zm8.76 4.82c-.19-.32-6.63.18-6.63.18s0 .75.19.88a58.49 58.49 0 0 0 6.5-.19c.49-.12.12-.56-.06-.87zm-7 3.87c-.76-.69-1.35-1.79-1.57-1.79s-1.07.13-.94.38a26.91 26.91 0 0 0 2.94 3c.25.06.68-.44.68-.44a9.53 9.53 0 0 0 -1.11-1.15zm9.44.81c-.25-.18-4.32.07-5 0 0 0-.19.82.12.94a45.29 45.29 0 0 0 5.06-.06c.43-.06.06-.69-.19-.88zm.17-7.6s.13 4.31.19 5.19.31.19.69.12.06-5 .06-5.25-.55-.06-.94-.06zm1.13-4.87a2.46 2.46 0 0 0 -.06 1.06c.12.31 2.43 0 2.68 0s0-.81-.12-1.06a4.81 4.81 0 0 0 -2.5.04zm-4-3.32c-.25 0-.19.88.25 1a55.22 55.22 0 0 0 6.56 0c.38-.12.13-.56.13-.81s-6.57-.15-6.94-.15z" fill="#1d1d1b"/></svg>