<?xml version="1.0" encoding="utf-8"?><!-- Uploaded to: SVG Repo, www.svgrepo.com, Generator: SVG Repo Mixer Tools -->
<svg width="800px" height="800px" viewBox="0 0 64 64" xmlns="http://www.w3.org/2000/svg"><path d="m52.29 35.61s2.21-.5 2.25-5.83-3.08-5.5-3.08-5.5.12-1.83 0-4.17-.71-8.45-3.33-11.66-10.34-6.92-19.21-5.45-12.25 5.86-14.71 10.2-.7 10.8-.84 10.8c-1.29.17-3.12 2.17-2.95 5.29s1.37 4.17 1.37 4.17a8.11 8.11 0 0 0 -1.71 2.29c-1 1.78-2.58 5.45-2.08 8.91a11.3 11.3 0 0 0 3.21 6s-.34.91.5 3.45a9.11 9.11 0 0 0 6.45 6c3.59 1 8.17-.83 8.17-.83a10.94 10.94 0 0 0 5.67 2.08 15.18 15.18 0 0 0 6.12-1.54 17.17 17.17 0 0 0 2.21.59c.71.08 6.63 0 9.46-1.59s2.21-6.71 2.21-6.71a4.17 4.17 0 0 0 1.21-.87c.41-.5 3-3.33 2.95-7s-3.87-8.63-3.87-8.63zm-.87-9.61c.77-.41 1.54 1 1.62 1.33a6.31 6.31 0 0 1 0 1.17 1.07 1.07 0 0 0 -1.5.67 3.25 3.25 0 0 0 .59 3.08 1.54 1.54 0 0 0 1.12.17s-.75 2-1.42 2.12-1.66-1.42-1.75-3.29.54-4.84 1.34-5.25zm-29.67-18.8c4.79-2.88 10.42-3.38 15.83-2.34s9.75 5.14 10.75 7.55a15.76 15.76 0 0 1 1 5.29s-1.83.41-1.79.62a40 40 0 0 1 .13 4.88 58.27 58.27 0 0 1 -16.21 1.87 55.6 55.6 0 0 1 -14.46-1.87 21.24 21.24 0 0 1 -.63-4.2 4.79 4.79 0 0 0 0-1.92 9.36 9.36 0 0 0 -1.12-1s1.75-6.01 6.5-8.88zm-8.5 18.12c.62-.25 2.58 1 2.17 4.38s-1.67 4-2.25 3.87-1.17-1.83-1.17-1.83a1 1 0 0 0 1.67-.74 6.61 6.61 0 0 0 .08-3.29 2.33 2.33 0 0 0 -1.75-.71s.62-1.43 1.25-1.68zm36.37 29.68c-1.41 3.21-3.33 3.21-6.16 3.29a37.42 37.42 0 0 1 -5.59-.54 10.36 10.36 0 0 1 -6 1.58c-3.54-.2-4.83-1.91-5.25-2s-4.41 1.79-8.5.29-5.62-6.21-4-8.13 7.25-3.25 10.75-6 4.12-4.41 7.79-4.5c2.29 0 7.16 5 11.79 7.63s6.55 5.2 5.17 8.38zm1.55-5a10 10 0 0 0 -3.17-3.72c-2-1.29-3.92-2.62-3.92-2.62s1.8-3 2.88-3.67a2.94 2.94 0 0 1 3 .08c.38.38.54.5.67.34a1.77 1.77 0 0 0 .29-.84 5.64 5.64 0 0 0 -2.67-1.33c-1.17-.24-2.25 1.12-3.17 2.33s-1.5 1.92-1.5 1.92-2.58-2.49-5.16-5.33-4.42-3.67-6.34-3.63-3.91 3.79-6.66 5.79-4.42 3.13-4.42 3.13-3.92-4.21-4.88-4.29-3 1.16-2.87 1.45.58 1.09.83 1 1.75-1.16 2.29-.79 3.8 3.46 3.67 3.79-2.42 1.39-4.75 2.88a12.72 12.72 0 0 0 -2.87 2.21s-2.96-2.7-2.42-6.17a27.32 27.32 0 0 1 3-7.71s2.83-.41 3.25-2.62a33.06 33.06 0 0 0 .2-6 53.81 53.81 0 0 0 17.21 1.87c9.67-.62 15.71-1.37 15.71-1.37s-1 4.29-.25 5.91a14.67 14.67 0 0 0 1.83 2.84s4 7.91 3.38 10.16-3.16 4.39-3.16 4.39zm-30.42-38.14c.67-.66 3.17-2.62 3.29-2.79s-.62-.75-.75-.83-.83.17-2.83 2a8 8 0 0 0 -2.46 3.54c.25 0 1 .79 1.21.83s.87-2.08 1.54-2.75zm24.79-.37c.21 0 .17-.13.33-.54s-2.2-1.56-2.54-1.63-.21 1-.08 1.17a10.89 10.89 0 0 0 2.29 1zm2.13 3.42a.6.6 0 0 0 .16-.59c-.08-.37-4.58-2.54-4.58-2.54-.29.08 0 .83.08 1s4.34 2.13 4.34 2.13zm-.09 2.29c.13-.09.17-.5.09-.75a32.63 32.63 0 0 0 -4.42-2 3.23 3.23 0 0 0 -.13 1 39.16 39.16 0 0 0 4.46 1.75zm-1 2.12c.29 0 .08-.41 0-.75a10.08 10.08 0 0 0 -3.66-1.71c-.17.09-.38.71-.25.88a26.31 26.31 0 0 0 3.87 1.58zm-.12 2.59c.12 0 .25-.71.12-.88a20.85 20.85 0 0 0 -3.79-1.83c-.21 0-.21 1-.08 1.12s3.58 1.54 3.71 1.59zm-2.21 1.29a.6.6 0 0 0 .46-.42c.08-.21-2.27-.9-2.46-1.08s-.25.58-.08.79a6.11 6.11 0 0 0 2.08.71zm-21 10.25c3.37-.38 5.21-2.75 5.21-3.5s-1.34-1-4.38-1.17a36.33 36.33 0 0 1 -5.58-.78c-.83.29-.92 5-.63 5.37s1.96.45 5.34.08zm21.75-4.45c-1.71 0-6.86-.44-7.34.25s1.59 3.21 3.84 4.16a10.14 10.14 0 0 0 6 .17c.29-.25.08-4 0-4.33s-.83-.25-2.5-.25zm.5 7.16c-1.5.04-3.17-.63-5.5-2.16s-4.71-3.79-6.29-4-2.46.17-4.34 1.25-5.37 4.28-8.12 4.66a6.09 6.09 0 0 1 -4.54-1.3c-.21 0-.63.59-.63.8s2.13 2 5.46 1.66 9.08-5.83 11.46-5.83 7.46 4.87 9.46 5.79a7.37 7.37 0 0 0 4.87.08c.21-.12.08-.7 0-1s-.33-.11-1.87 0zm-32.79 6.58c0 .17.25.83.46.83a11.58 11.58 0 0 0 2.33-1.57.54.54 0 0 0 -.21-.79c-.29-.21-2.53 1.31-2.58 1.53zm.91 1.71c0 .16.25.83.46.83a11.37 11.37 0 0 0 2.34-1.54.55.55 0 0 0 -.21-.79c-.34-.21-2.53 1.28-2.59 1.5zm35-3.29a.55.55 0 0 0 -.21.79 11.37 11.37 0 0 0 2.34 1.54c.21 0 .5-.67.46-.83s-2.21-1.66-2.58-1.5zm-.91 1.7a.55.55 0 0 0 -.21.8 11 11 0 0 0 2.33 1.54c.21 0 .5-.67.46-.84s-2.24-1.7-2.57-1.5zm-8.46 2.42c.21 0 .5-.67.46-.83s-2.25-1.71-2.59-1.5a.55.55 0 0 0 -.21.79 11.37 11.37 0 0 0 2.35 1.54zm-.91 1.72c.21 0 .5-.67.46-.83s-2.25-1.71-2.58-1.5a.53.53 0 0 0 -.21.79 11 11 0 0 0 2.33 1.54zm-13.72 1.16c.25-.13.71-.34.55-.5s-1.55-2-1.8-1.84a1.24 1.24 0 0 0 -.37.59c.33.33 1.37 1.87 1.62 1.75zm15.3.33a4.08 4.08 0 0 0 1.41-1.29c.13-.38-.41-.67-.66-.67s-1.21 1.17-1.3 1.38c0 0 .38.58.55.58zm.41 1.5c-1.75 0-1.12 0-2.75-1.67s-3.58-2.87-5.58-2.75c-3.34.21-4.09 3.54-5 4.13s-2.13-.46-4.84-1.21a5 5 0 0 0 -5.87 3.58c-.38 2.09.62 4.42 3.75 5s6.25-1.08 6.62-.87a8.44 8.44 0 0 0 5.5 2.25 6.85 6.85 0 0 0 5.63-1.88 7.52 7.52 0 0 1 2.12.25c1.17.18 4.09.92 6.09.18s3.38-2.83 1.79-5.67-5.71-1.33-7.46-1.33zm6.88 4c-.21 1.42-1.21 2.54-3.63 2.46s-5-1.38-5.75-1.25-2.58 2.08-4.25 2.33a7.58 7.58 0 0 1 -4.66-1 12.29 12.29 0 0 0 -2.17-1.53c-.67-.21-2.92 1.29-5.71 1s-3.71-2.09-3.37-3.75 1.87-3.09 3.58-2.63 4.71 2.13 5.87 1.5 2.59-4.33 5.38-4.33c2.34 0 4.21 3.29 5.46 3.92s4.91-.25 7 .12a2.53 2.53 0 0 1 2.25 3.17zm-26.59-2.75c-.95.54-1.87 2-.45 3.17a1.86 1.86 0 0 0 3.2-1.09c.13-1.32-1.32-2.89-2.75-2.08zm22.5.46c-.95.54-1.87 2-.45 3.16a1.86 1.86 0 0 0 3.2-1.08c.13-1.37-1.32-2.89-2.75-2.08zm-9.26-.32a15.2 15.2 0 0 0 -.08-2.12c-.11-.33-2.37-.15-2.48-.11a13.87 13.87 0 0 0 -.18 2.19s-1.39-.15-1.5-.11a29.08 29.08 0 0 0 -.29 3.25c0 .19 1.49.37 1.49.37s0 1.06.08 1.28a9.33 9.33 0 0 0 3 0 7.38 7.38 0 0 0 0-1.54s1.49-.22 1.68-.29a11.67 11.67 0 0 0 0-2.78c.07-.18-1.72-.14-1.72-.14z" fill="#1d1d1b"/></svg>