<svg aria-roledescription="er" viewBox="0 0 504.6986083984375 488" style="max-width: 504.699px; background-color: white;" xmlns:xlink="http://www.w3.org/1999/xlink" xmlns="http://www.w3.org/2000/svg" width="100%" id="mermaid-0"><style>#mermaid-0{font-family:"trebuchet ms",verdana,arial,sans-serif;font-size:16px;fill:#000000;}#mermaid-0 .error-icon{fill:#552222;}#mermaid-0 .error-text{fill:#552222;stroke:#552222;}#mermaid-0 .edge-thickness-normal{stroke-width:2px;}#mermaid-0 .edge-thickness-thick{stroke-width:3.5px;}#mermaid-0 .edge-pattern-solid{stroke-dasharray:0;}#mermaid-0 .edge-pattern-dashed{stroke-dasharray:3;}#mermaid-0 .edge-pattern-dotted{stroke-dasharray:2;}#mermaid-0 .marker{fill:#000000;stroke:#000000;}#mermaid-0 .marker.cross{stroke:#000000;}#mermaid-0 svg{font-family:"trebuchet ms",verdana,arial,sans-serif;font-size:16px;}#mermaid-0 .entityBox{fill:#cde498;stroke:#13540c;}#mermaid-0 .attributeBoxOdd{fill:#ffffff;stroke:#13540c;}#mermaid-0 .attributeBoxEven{fill:#f2f2f2;stroke:#13540c;}#mermaid-0 .relationshipLabelBox{fill:hsl(78.1578947368, 58.4615384615%, 84.5098039216%);opacity:0.7;background-color:hsl(78.1578947368, 58.4615384615%, 84.5098039216%);}#mermaid-0 .relationshipLabelBox rect{opacity:0.5;}#mermaid-0 .relationshipLine{stroke:#000000;}#mermaid-0 .entityTitleText{text-anchor:middle;font-size:18px;fill:#000000;}#mermaid-0 :root{--mermaid-font-family:"trebuchet ms",verdana,arial,sans-serif;}</style><g/><defs><marker orient="auto" markerHeight="18" markerWidth="18" refY="9" refX="0" id="ONLY_ONE_START"><path d="M9,0 L9,18 M15,0 L15,18" fill="none" stroke="gray"/></marker></defs><defs><marker orient="auto" markerHeight="18" markerWidth="18" refY="9" refX="18" id="ONLY_ONE_END"><path d="M3,0 L3,18 M9,0 L9,18" fill="none" stroke="gray"/></marker></defs><defs><marker orient="auto" markerHeight="18" markerWidth="30" refY="9" refX="0" id="ZERO_OR_ONE_START"><circle r="6" cy="9" cx="21" fill="white" stroke="gray"/><path d="M9,0 L9,18" fill="none" stroke="gray"/></marker></defs><defs><marker orient="auto" markerHeight="18" markerWidth="30" refY="9" refX="30" id="ZERO_OR_ONE_END"><circle r="6" cy="9" cx="9" fill="white" stroke="gray"/><path d="M21,0 L21,18" fill="none" stroke="gray"/></marker></defs><defs><marker orient="auto" markerHeight="36" markerWidth="45" refY="18" refX="18" id="ONE_OR_MORE_START"><path d="M0,18 Q 18,0 36,18 Q 18,36 0,18 M42,9 L42,27" fill="none" stroke="gray"/></marker></defs><defs><marker orient="auto" markerHeight="36" markerWidth="45" refY="18" refX="27" id="ONE_OR_MORE_END"><path d="M3,9 L3,27 M9,18 Q27,0 45,18 Q27,36 9,18" fill="none" stroke="gray"/></marker></defs><defs><marker orient="auto" markerHeight="36" markerWidth="57" refY="18" refX="18" id="ZERO_OR_MORE_START"><circle r="6" cy="18" cx="48" fill="white" stroke="gray"/><path d="M0,18 Q18,0 36,18 Q18,36 0,18" fill="none" stroke="gray"/></marker></defs><defs><marker orient="auto" markerHeight="36" markerWidth="57" refY="18" refX="39" id="ZERO_OR_MORE_END"><circle r="6" cy="18" cx="9" fill="white" stroke="gray"/><path d="M21,18 Q39,0 57,18 Q39,36 21,18" fill="none" stroke="gray"/></marker></defs><path style="stroke: gray; fill: none;" marker-start="url(#ZERO_OR_MORE_START)" marker-end="url(#ONLY_ONE_END)" d="M203.61760711669922,322L203.61760711669922,330.3333333333333C203.61760711669922,338.6666666666667,203.61760711669922,355.3333333333333,216.39141398042307,372C229.1652208441469,388.6666666666667,254.71283457159453,405.3333333333333,267.4866414353184,413.6666666666667L280.2604482990422,422" class="er relationshipLine"/><path style="stroke: gray; fill: none;" marker-start="url(#ZERO_OR_MORE_START)" marker-end="url(#ONLY_ONE_END)" d="M427.4147033691406,289L427.4147033691406,302.8333333333333C427.4147033691406,316.6666666666667,427.4147033691406,344.3333333333333,414.6408965054168,366.5C401.8670896416929,388.6666666666667,376.3194759142453,405.3333333333333,363.54566905052144,413.6666666666667L350.77186218679765,422" class="er relationshipLine"/><path style="stroke: gray; fill: none;" marker-start="url(#ZERO_OR_MORE_START)" marker-end="url(#ONLY_ONE_END)" d="M91.34759521484375,110L91.34759521484375,118.33333333333333C91.34759521484375,126.66666666666667,91.34759521484375,143.33333333333334,100.17385401215942,160C109.00011280947511,176.66666666666666,126.65263040410646,193.33333333333334,135.47888920142213,201.66666666666666L144.30514799873782,210" class="er relationshipLine"/><path style="stroke: gray; fill: none;" marker-start="url(#ZERO_OR_MORE_START)" marker-end="url(#ONLY_ONE_END)" d="M315.8876190185547,110L315.8876190185547,118.33333333333333C315.8876190185547,126.66666666666667,315.8876190185547,143.33333333333334,307.061360221239,160C298.23510142392337,176.66666666666666,280.582583829292,193.33333333333334,271.7563250319763,201.66666666666666L262.9300662346606,210" class="er relationshipLine"/><g transform="translate(137.1043930053711,210 )" id="entity-Users-8ff3d06d-8458-4c0a-92b1-274362785926"><rect height="112" width="133.02642822265625" y="0" x="0" class="er entityBox"/><text style="dominant-baseline: middle; text-anchor: middle; font-size: 12px;" transform="translate(66.51321411132812,12)" y="0" x="0" id="text-entity-Users-8ff3d06d-8458-4c0a-92b1-274362785926" class="er entityLabel">Users</text><rect height="22" width="54.095550537109375" y="24" x="0" class="er attributeBoxOdd"/><text style="dominant-baseline: middle; font-size: 10.2px;" transform="translate(5,35)" y="0" x="0" id="text-entity-Users-8ff3d06d-8458-4c0a-92b1-274362785926-attr-1-type" class="er entityLabel">String</text><rect height="22" width="56.243194580078125" y="24" x="54.095550537109375" class="er attributeBoxOdd"/><text style="dominant-baseline: middle; font-size: 10.2px;" transform="translate(59.095550537109375,35)" y="0" x="0" id="text-entity-Users-8ff3d06d-8458-4c0a-92b1-274362785926-attr-1-name" class="er entityLabel">id</text><rect height="22" width="22.68768310546875" y="24" x="110.3387451171875" class="er attributeBoxOdd"/><text style="dominant-baseline: middle; font-size: 10.2px;" transform="translate(115.3387451171875,35)" y="0" x="0" id="text-entity-Users-8ff3d06d-8458-4c0a-92b1-274362785926-attr-1-key" class="er entityLabel">PK</text><rect height="22" width="54.095550537109375" y="46" x="0" class="er attributeBoxEven"/><text style="dominant-baseline: middle; font-size: 10.2px;" transform="translate(5,57)" y="0" x="0" id="text-entity-Users-8ff3d06d-8458-4c0a-92b1-274362785926-attr-2-type" class="er entityLabel">String</text><rect height="22" width="56.243194580078125" y="46" x="54.095550537109375" class="er attributeBoxEven"/><text style="dominant-baseline: middle; font-size: 10.2px;" transform="translate(59.095550537109375,57)" y="0" x="0" id="text-entity-Users-8ff3d06d-8458-4c0a-92b1-274362785926-attr-2-name" class="er entityLabel">username</text><rect height="22" width="22.68768310546875" y="46" x="110.3387451171875" class="er attributeBoxEven"/><text style="dominant-baseline: middle; font-size: 10.2px;" transform="translate(115.3387451171875,57)" y="0" x="0" id="text-entity-Users-8ff3d06d-8458-4c0a-92b1-274362785926-attr-2-key" class="er entityLabel"/><rect height="22" width="54.095550537109375" y="68" x="0" class="er attributeBoxOdd"/><text style="dominant-baseline: middle; font-size: 10.2px;" transform="translate(5,79)" y="0" x="0" id="text-entity-Users-8ff3d06d-8458-4c0a-92b1-274362785926-attr-3-type" class="er entityLabel">String</text><rect height="22" width="56.243194580078125" y="68" x="54.095550537109375" class="er attributeBoxOdd"/><text style="dominant-baseline: middle; font-size: 10.2px;" transform="translate(59.095550537109375,79)" y="0" x="0" id="text-entity-Users-8ff3d06d-8458-4c0a-92b1-274362785926-attr-3-name" class="er entityLabel">password</text><rect height="22" width="22.68768310546875" y="68" x="110.3387451171875" class="er attributeBoxOdd"/><text style="dominant-baseline: middle; font-size: 10.2px;" transform="translate(115.3387451171875,79)" y="0" x="0" id="text-entity-Users-8ff3d06d-8458-4c0a-92b1-274362785926-attr-3-key" class="er entityLabel"/><rect height="22" width="54.095550537109375" y="90" x="0" class="er attributeBoxEven"/><text style="dominant-baseline: middle; font-size: 10.2px;" transform="translate(5,101)" y="0" x="0" id="text-entity-Users-8ff3d06d-8458-4c0a-92b1-274362785926-attr-4-type" class="er entityLabel">DateTime</text><rect height="22" width="56.243194580078125" y="90" x="54.095550537109375" class="er attributeBoxEven"/><text style="dominant-baseline: middle; font-size: 10.2px;" transform="translate(59.095550537109375,101)" y="0" x="0" id="text-entity-Users-8ff3d06d-8458-4c0a-92b1-274362785926-attr-4-name" class="er entityLabel">createdAt</text><rect height="22" width="22.68768310546875" y="90" x="110.3387451171875" class="er attributeBoxEven"/><text style="dominant-baseline: middle; font-size: 10.2px;" transform="translate(115.3387451171875,101)" y="0" x="0" id="text-entity-Users-8ff3d06d-8458-4c0a-92b1-274362785926-attr-4-key" class="er entityLabel"/></g><g transform="translate(265.5161552429199,422 )" id="entity-Collection-dee4226d-1c39-410e-b078-96fb0017cfe9"><rect height="46" width="100" y="0" x="0" class="er entityBox"/><text style="dominant-baseline: middle; text-anchor: middle; font-size: 12px;" transform="translate(50,12)" y="0" x="0" id="text-entity-Collection-dee4226d-1c39-410e-b078-96fb0017cfe9" class="er entityLabel">Collection</text><rect height="22" width="44.39861551920573" y="24" x="0" class="er attributeBoxOdd"/><text style="dominant-baseline: middle; font-size: 10.2px;" transform="translate(5,35)" y="0" x="0" id="text-entity-Collection-dee4226d-1c39-410e-b078-96fb0017cfe9-attr-1-type" class="er entityLabel">String</text><rect height="22" width="25.911142985026043" y="24" x="44.39861551920573" class="er attributeBoxOdd"/><text style="dominant-baseline: middle; font-size: 10.2px;" transform="translate(49.39861551920573,35)" y="0" x="0" id="text-entity-Collection-dee4226d-1c39-410e-b078-96fb0017cfe9-attr-1-name" class="er entityLabel">id</text><rect height="22" width="29.69024149576823" y="24" x="70.30975850423177" class="er attributeBoxOdd"/><text style="dominant-baseline: middle; font-size: 10.2px;" transform="translate(75.30975850423177,35)" y="0" x="0" id="text-entity-Collection-dee4226d-1c39-410e-b078-96fb0017cfe9-attr-1-key" class="er entityLabel">PK</text></g><g transform="translate(370.13082122802734,243 )" id="entity-Cards-d063ed00-b37a-408c-a01a-f4d14aea4fc3"><rect height="46" width="114.56776428222656" y="0" x="0" class="er entityBox"/><text style="dominant-baseline: middle; text-anchor: middle; font-size: 12px;" transform="translate(57.28388214111328,12)" y="0" x="0" id="text-entity-Cards-d063ed00-b37a-408c-a01a-f4d14aea4fc3" class="er entityLabel">Cards</text><rect height="22" width="37.39605712890625" y="24" x="0" class="er attributeBoxOdd"/><text style="dominant-baseline: middle; font-size: 10.2px;" transform="translate(5,35)" y="0" x="0" id="text-entity-Cards-d063ed00-b37a-408c-a01a-f4d14aea4fc3-attr-1-type" class="er entityLabel">String</text><rect height="22" width="54.48402404785156" y="24" x="37.39605712890625" class="er attributeBoxOdd"/><text style="dominant-baseline: middle; font-size: 10.2px;" transform="translate(42.39605712890625,35)" y="0" x="0" id="text-entity-Cards-d063ed00-b37a-408c-a01a-f4d14aea4fc3-attr-1-name" class="er entityLabel">cardDefId</text><rect height="22" width="22.68768310546875" y="24" x="91.88008117675781" class="er attributeBoxOdd"/><text style="dominant-baseline: middle; font-size: 10.2px;" transform="translate(96.88008117675781,35)" y="0" x="0" id="text-entity-Cards-d063ed00-b37a-408c-a01a-f4d14aea4fc3-attr-1-key" class="er entityLabel">PK</text></g><g transform="translate(20,20 )" id="entity-Deck-0d2c056a-9492-4b3b-898c-8dd4e6ab9561"><rect height="90" width="142.6951904296875" y="0" x="0" class="er entityBox"/><text style="dominant-baseline: middle; text-anchor: middle; font-size: 12px;" transform="translate(71.34759521484375,12)" y="0" x="0" id="text-entity-Deck-0d2c056a-9492-4b3b-898c-8dd4e6ab9561" class="er entityLabel">Deck</text><rect height="22" width="37.39605712890625" y="24" x="0" class="er attributeBoxOdd"/><text style="dominant-baseline: middle; font-size: 10.2px;" transform="translate(5,35)" y="0" x="0" id="text-entity-Deck-0d2c056a-9492-4b3b-898c-8dd4e6ab9561-attr-1-type" class="er entityLabel">String</text><rect height="22" width="35.39891052246094" y="24" x="37.39605712890625" class="er attributeBoxOdd"/><text style="dominant-baseline: middle; font-size: 10.2px;" transform="translate(42.39605712890625,35)" y="0" x="0" id="text-entity-Deck-0d2c056a-9492-4b3b-898c-8dd4e6ab9561-attr-1-name" class="er entityLabel">id</text><rect height="22" width="22.68768310546875" y="24" x="72.79496765136719" class="er attributeBoxOdd"/><text style="dominant-baseline: middle; font-size: 10.2px;" transform="translate(77.79496765136719,35)" y="0" x="0" id="text-entity-Deck-0d2c056a-9492-4b3b-898c-8dd4e6ab9561-attr-1-key" class="er entityLabel">PK</text><rect height="22" width="47.21253967285156" y="24" x="95.48265075683594" class="er attributeBoxOdd"/><text style="dominant-baseline: middle; font-size: 10.2px;" transform="translate(100.48265075683594,35)" y="0" x="0" id="text-entity-Deck-0d2c056a-9492-4b3b-898c-8dd4e6ab9561-attr-1-comment" class="er entityLabel"/><rect height="22" width="37.39605712890625" y="46" x="0" class="er attributeBoxEven"/><text style="dominant-baseline: middle; font-size: 10.2px;" transform="translate(5,57)" y="0" x="0" id="text-entity-Deck-0d2c056a-9492-4b3b-898c-8dd4e6ab9561-attr-2-type" class="er entityLabel">String</text><rect height="22" width="35.39891052246094" y="46" x="37.39605712890625" class="er attributeBoxEven"/><text style="dominant-baseline: middle; font-size: 10.2px;" transform="translate(42.39605712890625,57)" y="0" x="0" id="text-entity-Deck-0d2c056a-9492-4b3b-898c-8dd4e6ab9561-attr-2-name" class="er entityLabel">name</text><rect height="22" width="22.68768310546875" y="46" x="72.79496765136719" class="er attributeBoxEven"/><text style="dominant-baseline: middle; font-size: 10.2px;" transform="translate(77.79496765136719,57)" y="0" x="0" id="text-entity-Deck-0d2c056a-9492-4b3b-898c-8dd4e6ab9561-attr-2-key" class="er entityLabel"/><rect height="22" width="47.21253967285156" y="46" x="95.48265075683594" class="er attributeBoxEven"/><text style="dominant-baseline: middle; font-size: 10.2px;" transform="translate(100.48265075683594,57)" y="0" x="0" id="text-entity-Deck-0d2c056a-9492-4b3b-898c-8dd4e6ab9561-attr-2-comment" class="er entityLabel"/><rect height="22" width="37.39605712890625" y="68" x="0" class="er attributeBoxOdd"/><text style="dominant-baseline: middle; font-size: 10.2px;" transform="translate(5,79)" y="0" x="0" id="text-entity-Deck-0d2c056a-9492-4b3b-898c-8dd4e6ab9561-attr-3-type" class="er entityLabel">String</text><rect height="22" width="35.39891052246094" y="68" x="37.39605712890625" class="er attributeBoxOdd"/><text style="dominant-baseline: middle; font-size: 10.2px;" transform="translate(42.39605712890625,79)" y="0" x="0" id="text-entity-Deck-0d2c056a-9492-4b3b-898c-8dd4e6ab9561-attr-3-name" class="er entityLabel">cards</text><rect height="22" width="22.68768310546875" y="68" x="72.79496765136719" class="er attributeBoxOdd"/><text style="dominant-baseline: middle; font-size: 10.2px;" transform="translate(77.79496765136719,79)" y="0" x="0" id="text-entity-Deck-0d2c056a-9492-4b3b-898c-8dd4e6ab9561-attr-3-key" class="er entityLabel"/><rect height="22" width="47.21253967285156" y="68" x="95.48265075683594" class="er attributeBoxOdd"/><text style="dominant-baseline: middle; font-size: 10.2px;" transform="translate(100.48265075683594,79)" y="0" x="0" id="text-entity-Deck-0d2c056a-9492-4b3b-898c-8dd4e6ab9561-attr-3-comment" class="er entityLabel">nullable</text></g><g transform="translate(262.6951904296875,20 )" id="entity-Friend-e20c87bc-60de-4a77-a310-f0318a7845d3"><rect height="90" width="106.38485717773438" y="0" x="0" class="er entityBox"/><text style="dominant-baseline: middle; text-anchor: middle; font-size: 12px;" transform="translate(53.19242858886719,12)" y="0" x="0" id="text-entity-Friend-e20c87bc-60de-4a77-a310-f0318a7845d3" class="er entityLabel">Friend</text><rect height="22" width="37.39605712890625" y="24" x="0" class="er attributeBoxOdd"/><text style="dominant-baseline: middle; font-size: 10.2px;" transform="translate(5,35)" y="0" x="0" id="text-entity-Friend-e20c87bc-60de-4a77-a310-f0318a7845d3-attr-1-type" class="er entityLabel">String</text><rect height="22" width="46.301116943359375" y="24" x="37.39605712890625" class="er attributeBoxOdd"/><text style="dominant-baseline: middle; font-size: 10.2px;" transform="translate(42.39605712890625,35)" y="0" x="0" id="text-entity-Friend-e20c87bc-60de-4a77-a310-f0318a7845d3-attr-1-name" class="er entityLabel">id</text><rect height="22" width="22.68768310546875" y="24" x="83.69717407226562" class="er attributeBoxOdd"/><text style="dominant-baseline: middle; font-size: 10.2px;" transform="translate(88.69717407226562,35)" y="0" x="0" id="text-entity-Friend-e20c87bc-60de-4a77-a310-f0318a7845d3-attr-1-key" class="er entityLabel">PK</text><rect height="22" width="37.39605712890625" y="46" x="0" class="er attributeBoxEven"/><text style="dominant-baseline: middle; font-size: 10.2px;" transform="translate(5,57)" y="0" x="0" id="text-entity-Friend-e20c87bc-60de-4a77-a310-f0318a7845d3-attr-2-type" class="er entityLabel">String</text><rect height="22" width="46.301116943359375" y="46" x="37.39605712890625" class="er attributeBoxEven"/><text style="dominant-baseline: middle; font-size: 10.2px;" transform="translate(42.39605712890625,57)" y="0" x="0" id="text-entity-Friend-e20c87bc-60de-4a77-a310-f0318a7845d3-attr-2-name" class="er entityLabel">friendId</text><rect height="22" width="22.68768310546875" y="46" x="83.69717407226562" class="er attributeBoxEven"/><text style="dominant-baseline: middle; font-size: 10.2px;" transform="translate(88.69717407226562,57)" y="0" x="0" id="text-entity-Friend-e20c87bc-60de-4a77-a310-f0318a7845d3-attr-2-key" class="er entityLabel"/><rect height="22" width="37.39605712890625" y="68" x="0" class="er attributeBoxOdd"/><text style="dominant-baseline: middle; font-size: 10.2px;" transform="translate(5,79)" y="0" x="0" id="text-entity-Friend-e20c87bc-60de-4a77-a310-f0318a7845d3-attr-3-type" class="er entityLabel">String</text><rect height="22" width="46.301116943359375" y="68" x="37.39605712890625" class="er attributeBoxOdd"/><text style="dominant-baseline: middle; font-size: 10.2px;" transform="translate(42.39605712890625,79)" y="0" x="0" id="text-entity-Friend-e20c87bc-60de-4a77-a310-f0318a7845d3-attr-3-name" class="er entityLabel">status</text><rect height="22" width="22.68768310546875" y="68" x="83.69717407226562" class="er attributeBoxOdd"/><text style="dominant-baseline: middle; font-size: 10.2px;" transform="translate(88.69717407226562,79)" y="0" x="0" id="text-entity-Friend-e20c87bc-60de-4a77-a310-f0318a7845d3-attr-3-key" class="er entityLabel"/></g><rect height="14" width="53.564453125" y="375.56939697265625" x="199.263671875" class="er relationshipLabelBox"/><text style="text-anchor: middle; dominant-baseline: middle; font-size: 12px;" y="382.56939697265625" x="226.0458984375" id="rel1" class="er relationshipLabel">collection</text><rect height="14" width="48.806640625" y="362.0201416015625" x="388.7164611816406" class="er relationshipLabelBox"/><text style="text-anchor: middle; dominant-baseline: middle; font-size: 12px;" y="369.0201416015625" x="413.1197814941406" id="rel2" class="er relationshipLabel">collecion</text><rect height="14" width="34.470703125" y="159.6953582763672" x="86.92997741699219" class="er relationshipLabelBox"/><text style="text-anchor: middle; dominant-baseline: middle; font-size: 12px;" y="166.6953582763672" x="104.16532897949219" id="rel3" class="er relationshipLabel">owner</text><rect height="14" width="34.470703125" y="159.6953582763672" x="285.83453369140625" class="er relationshipLabelBox"/><text style="text-anchor: middle; dominant-baseline: middle; font-size: 12px;" y="166.6953582763672" x="303.06988525390625" id="rel4" class="er relationshipLabel">owner</text></svg>