<svg width="21" height="20" viewBox="0 0 21 20" fill="none" xmlns="http://www.w3.org/2000/svg">
<path fill-rule="evenodd" clip-rule="evenodd" d="M10.303 0C4.6106 0 0 4.5882 0 10.2529C0 14.7899 2.94924 18.6219 7.0447 19.9804C7.5598 20.0701 7.753 19.7625 7.753 19.4934C7.753 19.2499 7.7402 18.4425 7.7402 17.5838C5.1515 18.058 4.4818 16.9558 4.2758 16.3791C4.1598 16.0843 3.65758 15.1743 3.2197 14.9308C2.85909 14.7386 2.34394 14.2644 3.20682 14.2516C4.0182 14.2388 4.5977 14.9949 4.7909 15.3025C5.7182 16.8533 7.1992 16.4175 7.7917 16.1484C7.8818 15.4819 8.1523 15.0334 8.4485 14.777C6.1561 14.5207 3.76061 13.6364 3.76061 9.7147C3.76061 8.5997 4.1598 7.6769 4.8167 6.9592C4.7136 6.7029 4.353 5.6519 4.9197 4.2422C4.9197 4.2422 5.7826 3.97301 7.753 5.2931C8.5773 5.0624 9.453 4.947 10.3288 4.947C11.2045 4.947 12.0803 5.0624 12.9045 5.2931C14.875 3.9602 15.7379 4.2422 15.7379 4.2422C16.3045 5.6519 15.9439 6.7029 15.8409 6.9592C16.4977 7.6769 16.897 8.5868 16.897 9.7147C16.897 13.6492 14.4886 14.5207 12.1962 14.777C12.5697 15.0975 12.8917 15.7126 12.8917 16.6738C12.8917 18.0452 12.8788 19.1474 12.8788 19.4934C12.8788 19.7625 13.072 20.0829 13.5871 19.9804C17.6568 18.6219 20.6061 14.777 20.6061 10.2529C20.6061 4.5882 15.9955 0 10.303 0Z" fill="url(#paint0_linear_2073_420)"/>
<defs>
<linearGradient id="paint0_linear_2073_420" x1="19.1342" y1="1.81818" x2="2.39227" y2="19.2012" gradientUnits="userSpaceOnUse">
<stop stop-color="#F5E257"/>
<stop offset="1" stop-color="#FFE300"/>
</linearGradient>
</defs>
</svg>
