<svg width="20" height="20" viewBox="0 0 20 20" fill="none" xmlns="http://www.w3.org/2000/svg">
<path fill-rule="evenodd" clip-rule="evenodd" d="M15 0H5C2.23858 0 0 2.23858 0 5V15C0 17.7614 2.23858 20 5 20H15C17.7614 20 20 17.7614 20 15V5C20 2.23858 17.7614 0 15 0ZM14.9459 9.2666C15.1002 10.3069 14.9225 11.3694 14.4381 12.3028C13.9537 13.2363 13.1873 13.9933 12.2479 14.4662C11.3085 14.939 10.244 15.1036 9.2057 14.9365C8.1673 14.7694 7.2081 14.2792 6.4645 13.5355C5.7208 12.7919 5.2306 11.8327 5.0635 10.7943C4.8964 9.756 5.061 8.6915 5.5338 7.7521C6.0067 6.8127 6.7637 6.0463 7.6972 5.5619C8.6306 5.0775 9.6931 4.8998 10.7334 5.0541C11.7946 5.2114 12.777 5.7059 13.5355 6.4645C14.2941 7.223 14.7886 8.2054 14.9459 9.2666ZM16.5 6C17.3284 6 18 5.3284 18 4.5C18 3.67157 17.3284 3 16.5 3C15.6716 3 15 3.67157 15 4.5C15 5.3284 15.6716 6 16.5 6Z" fill="url(#paint0_linear_2073_421)"/>
<path d="M5.2381 0.952381H14.7619V0H5.2381V0.952381ZM0.952381 5.2381C0.952381 2.87116 2.87116 0.952381 5.2381 0.952381V0C2.34517 0 0 2.34517 0 5.2381H0.952381ZM0.952381 14.7619V5.2381H0V14.7619H0.952381ZM5.2381 19.0476C2.87116 19.0476 0.952381 17.1289 0.952381 14.7619H0C0 17.6549 2.34517 20 5.2381 20V19.0476ZM14.7619 19.0476H5.2381V20H14.7619V19.0476ZM19.0476 14.7619C19.0476 17.1289 17.1289 19.0476 14.7619 19.0476V20C17.6549 20 20 17.6549 20 14.7619H19.0476ZM19.0476 5.2381V14.7619H20V5.2381H19.0476ZM14.7619 0.952381C17.1289 0.952381 19.0476 2.87116 19.0476 5.2381H20C20 2.34517 17.6549 0 14.7619 0V0.952381ZM14.6494 12.4125C15.1569 11.4346 15.343 10.3215 15.1814 9.23162L14.2393 9.37133C14.3716 10.263 14.2192 11.1737 13.8041 11.9739L14.6494 12.4125ZM12.355 14.6789C13.3391 14.1835 14.142 13.3905 14.6494 12.4125L13.8041 11.9739C13.389 12.774 12.732 13.4229 11.9269 13.8282L12.355 14.6789ZM9.16781 15.1715C10.2556 15.3466 11.3709 15.1742 12.355 14.6789L11.9269 13.8282C11.1216 14.2334 10.2091 14.3745 9.31914 14.2312L9.16781 15.1715ZM6.2961 13.7039C7.07514 14.483 8.0801 14.9966 9.16781 15.1715L9.31914 14.2312C8.42914 14.0881 7.60695 13.6679 6.96952 13.0305L6.2961 13.7039ZM4.82848 10.8322C5.00343 11.9199 5.51705 12.9249 6.2961 13.7039L6.96952 13.0305C6.3321 12.393 5.91191 11.5709 5.76876 10.6809L4.82848 10.8322ZM5.32114 7.64505C4.82581 8.62914 4.65343 9.74438 4.82848 10.8322L5.76876 10.6809C5.62552 9.79086 5.76657 8.87838 6.17181 8.07314L5.32114 7.64505ZM7.58752 5.35057C6.60952 5.858 5.81648 6.66086 5.32114 7.64505L6.17181 8.07314C6.57714 7.268 7.226 6.61105 8.02609 6.1959L7.58752 5.35057ZM10.7684 4.81857C9.67848 4.65695 8.56543 4.84314 7.58752 5.35057L8.02609 6.1959C8.82629 5.78076 9.73695 5.62838 10.6287 5.76067L10.7684 4.81857ZM13.7039 6.2961C12.9092 5.50143 11.88 4.98343 10.7684 4.81857L10.6287 5.76067C11.5382 5.89552 12.3803 6.31933 13.0305 6.96952L13.7039 6.2961ZM15.1814 9.23162C15.0166 8.12 14.4986 7.09076 13.7039 6.2961L13.0305 6.96952C13.6807 7.61971 14.1045 8.46181 14.2393 9.37133L15.1814 9.23162ZM17.1429 4.7619C17.1429 5.2879 16.7165 5.71429 16.1905 5.71429V6.66667C17.2425 6.66667 18.0952 5.8139 18.0952 4.7619H17.1429ZM16.1905 3.80952C16.7165 3.80952 17.1429 4.23592 17.1429 4.7619H18.0952C18.0952 3.70993 17.2425 2.85714 16.1905 2.85714V3.80952ZM15.2381 4.7619C15.2381 4.23592 15.6645 3.80952 16.1905 3.80952V2.85714C15.1385 2.85714 14.2857 3.70993 14.2857 4.7619H15.2381ZM16.1905 5.71429C15.6645 5.71429 15.2381 5.2879 15.2381 4.7619H14.2857C14.2857 5.8139 15.1385 6.66667 16.1905 6.66667V5.71429Z" fill="url(#paint1_linear_2073_421)"/>
<defs>
<linearGradient id="paint0_linear_2073_421" x1="18.5714" y1="1.81818" x2="1.81818" y2="18.7013" gradientUnits="userSpaceOnUse">
<stop stop-color="#F5E257"/>
<stop offset="0.0001" stop-color="#F5E257"/>
<stop offset="1" stop-color="#FFE300"/>
</linearGradient>
<linearGradient id="paint1_linear_2073_421" x1="18.1632" y1="2.20779" x2="2.20779" y2="18.287" gradientUnits="userSpaceOnUse">
<stop stop-color="#F5E257"/>
<stop offset="1" stop-color="#FFE300"/>
</linearGradient>
</defs>
</svg>
