<svg width="20" height="20" viewBox="0 0 20 20" fill="none" xmlns="http://www.w3.org/2000/svg">
<path d="M0 1.43266C0 0.64187 0.66203 0 1.47812 0H18.5219C19.3383 0 20 0.64187 20 1.43266V18.5676C20 19.3586 19.3383 20 18.5219 20H1.47812C0.66211 20 0 19.3587 0 18.5678V1.43266Z" fill="url(#paint0_linear_2073_422)"/>
<path d="M6.02415 16.5896V7.66461H3.05766V16.5896H6.02415ZM4.54155 6.44631C5.57585 6.44631 6.21975 5.76101 6.21975 4.90451C6.20035 4.02851 5.57585 3.3623 4.56125 3.3623C3.54592 3.3623 2.88281 4.02851 2.88281 4.90441C2.88281 5.76091 3.52648 6.44621 4.52215 6.44621L4.54155 6.44631ZM7.66625 16.5896H10.6326V11.6061C10.6326 11.3397 10.6519 11.0726 10.7303 10.8823C10.9446 10.3491 11.4327 9.79721 12.2524 9.79721C13.3256 9.79721 13.7551 10.6156 13.7551 11.8155V16.5896H16.7214V11.4723C16.7214 8.73111 15.2581 7.45541 13.3064 7.45541C11.7063 7.45541 11.0035 8.34971 10.613 8.95891H10.6328V7.66501H7.66635C7.70505 8.50221 7.66625 16.5896 7.66625 16.5896Z" fill="#06090F"/>
<defs>
<linearGradient id="paint0_linear_2073_422" x1="18.5714" y1="1.81818" x2="1.81818" y2="18.7013" gradientUnits="userSpaceOnUse">
<stop stop-color="#F5E257"/>
<stop offset="1" stop-color="#FFE300"/>
</linearGradient>
</defs>
</svg>
