<?xml version="1.0" encoding="utf-8"?>
<!-- Generator: Adobe Illustrator 24.1.2, SVG Export Plug-In . SVG Version: 6.00 Build 0)  -->
<svg version="1.1" id="Camada_1" xmlns="http://www.w3.org/2000/svg" xmlns:xlink="http://www.w3.org/1999/xlink" x="0px" y="0px"
	 viewBox="0 0 120.8 123" style="enable-background:new 0 0 120.8 123;" xml:space="preserve">
<g>
	<path d="M25.5,13.2c-2.8,7.2-7,15.3-9.1,23.9c-3.1,12.5,1.7,23.1,11.4,31.3c8.9,7.5,20.1,3.8,23.4-7.4c3.6-12-1.9-27-12.4-33.8
		c-0.5-0.3-1-0.8-1.8-1.4c2.3-2.6,4.5-5,7.1-7.9c3.4,2.9,6.5,5.5,9.6,8.1c0.3-0.1,0.6-0.2,1-0.3c-1.3-3.4-2.2-6.9-3.9-10
		c-1.4-2.5-1.2-4.1,0.8-6C54.4,6.7,57,3.5,60.1,0c3.8,4.2,7.2,8.1,10.5,11.8c-1.7,4.8-3.3,9.2-4.9,13.6c0.3,0.1,0.6,0.3,0.9,0.4
		c3-2.4,6.1-4.9,9.5-7.7c2.5,2.6,4.7,4.9,7.1,7.5c-13.6,8.3-17,20.5-13.9,34.8c2.5,11.6,11.1,14.9,21.4,8.9
		c11.7-6.9,17.2-21,12.7-35.5c-2.3-7.5-6.3-14.4-9.2-21c15.6,5,29.2,32.8,26.3,55.4c-4,31.8-24.8,52.7-54.4,54.7
		c-30.1,2-56-16.1-63.9-44.9C-5.5,50.1,8.5,23,25.5,13.2z"/>
</g>
</svg>
