<svg width="64" height="64" viewBox="0 0 64 64" fill="none" xmlns="http://www.w3.org/2000/svg">
<path d="M32 40C37.5228 40 42 35.5228 42 30C42 24.4772 37.5228 20 32 20C26.4772 20 22 24.4772 22 30C22 35.5228 26.4772 40 32 40Z" stroke="white" stroke-width="2" stroke-miterlimit="10"/>
<path d="M15.9502 49.8501C17.455 46.8861 19.7511 44.3967 22.5841 42.6579C25.417 40.919 28.6761 39.9985 32.0002 39.9985C35.3242 39.9985 38.5834 40.919 41.4163 42.6579C44.2493 44.3967 46.5454 46.8861 48.0502 49.8501" stroke="white" stroke-width="2" stroke-linecap="round" stroke-linejoin="round"/>
<path d="M44 14H56" stroke="white" stroke-width="2" stroke-linecap="round" stroke-linejoin="round"/>
<path d="M50 8V20" stroke="white" stroke-width="2" stroke-linecap="round" stroke-linejoin="round"/>
<path d="M55.7 28.225C55.9022 29.4732 56.0025 30.7357 56 32C56 36.7468 54.5924 41.387 51.9553 45.3337C49.3181 49.2805 45.5698 52.3566 41.1844 54.1732C36.799 55.9897 31.9734 56.4649 27.3178 55.5389C22.6623 54.6128 18.3859 52.3271 15.0294 48.9706C11.673 45.6141 9.38721 41.3378 8.46116 36.6822C7.53512 32.0267 8.0104 27.2011 9.8269 22.8156C11.6434 18.4302 14.7195 14.6819 18.6663 12.0448C22.6131 9.40762 27.2533 8.00004 32 8.00004C33.2644 7.99756 34.5269 8.09789 35.775 8.30005" stroke="white" stroke-width="2" stroke-linecap="round" stroke-linejoin="round"/>
</svg>
