<svg width="64" height="64" viewBox="0 0 64 64" fill="none" xmlns="http://www.w3.org/2000/svg">
<path d="M38 52V40C38 39.4696 37.7893 38.9609 37.4142 38.5858C37.0391 38.2108 36.5304 38 36 38H28C27.4696 38 26.9609 38.2108 26.5858 38.5858C26.2107 38.9609 26 39.4696 26 40V52C26 52.5305 25.7893 53.0392 25.4142 53.4143C25.0391 53.7893 24.5304 54 24 54H12C11.4696 54 10.9609 53.7893 10.5858 53.4143C10.2107 53.0392 10 52.5305 10 52V28.875C10.0045 28.5983 10.0643 28.3252 10.1759 28.0719C10.2876 27.8185 10.4487 27.5901 10.65 27.4L30.65 9.22505C31.0187 8.88775 31.5003 8.70068 32 8.70068C32.4997 8.70068 32.9813 8.88775 33.35 9.22505L53.35 27.4C53.5513 27.5901 53.7124 27.8185 53.8241 28.0719C53.9357 28.3252 53.9955 28.5983 54 28.875V52C54 52.5305 53.7893 53.0392 53.4142 53.4143C53.0391 53.7893 52.5304 54 52 54H40C39.4696 54 38.9609 53.7893 38.5858 53.4143C38.2107 53.0392 38 52.5305 38 52Z" stroke="white" stroke-width="2" stroke-linecap="round" stroke-linejoin="round"/>
</svg>
