<svg width="65" height="64" viewBox="0 0 65 64" fill="none" xmlns="http://www.w3.org/2000/svg">
<path d="M57.525 30.3L21.55 8.29999C21.2472 8.11319 20.9 8.01055 20.5442 8.00269C20.1885 7.99482 19.8371 8.082 19.5263 8.25524C19.2155 8.42847 18.9565 8.68149 18.7761 8.98819C18.5957 9.29489 18.5004 9.64417 18.5 9.99999V54C18.5004 54.3558 18.5957 54.7051 18.7761 55.0118C18.9565 55.3185 19.2155 55.5715 19.5263 55.7448C19.8371 55.918 20.1885 56.0052 20.5442 55.9973C20.9 55.9894 21.2472 55.8868 21.55 55.7L57.525 33.7C57.8204 33.5253 58.0652 33.2767 58.2352 32.9786C58.4053 32.6805 58.4947 32.3432 58.4947 32C58.4947 31.6568 58.4053 31.3195 58.2352 31.0214C58.0652 30.7233 57.8204 30.4747 57.525 30.3V30.3Z" stroke="white" stroke-width="2" stroke-linecap="round" stroke-linejoin="round"/>
</svg>
